<?xml version="1.0" standalone="no"?><!DOCTYPE svg PUBLIC "-//W3C//DTD SVG 1.1//EN" "http://www.w3.org/Graphics/SVG/1.1/DTD/svg11.dtd"><svg t="1630568362768" class="icon" viewBox="0 0 1025 1024" version="1.1" xmlns="http://www.w3.org/2000/svg" p-id="6335" xmlns:xlink="http://www.w3.org/1999/xlink" width="200.1953125" height="200"><defs><style type="text/css"></style></defs><path d="M1024 944.078049c0 44.139895-35.782057 79.921951-79.921951 79.921951h-863.157073c-44.139895 0-79.921951-35.782057-79.921952-79.921951V80.920976c0-44.139895 35.782057-79.921951 79.921952-79.921952h863.157073c44.139895 0 79.921951 35.782057 79.921951 79.921952v863.157073z" fill="#219FDB" p-id="6336"></path><path d="M604.603567 578.881686s18.369061-27.386256 37.80608-81.057842c19.470985-53.536718 22.243278-83.161787 22.243278-83.161787l-153.964644-1.335696v-52.535696l186.528843-1.335695v-37.1717H510.687282v-84.698287h-91.344796v84.698287H245.337413v37.1717l173.904171-1.336695v56.443879H279.73682v29.591103h287.291441s-3.171902 23.979582-14.127203 53.570684a1136.550088 1136.550088 0 0 1-22.343181 55.841468s-134.995169-47.157947-206.167664-47.157948c-71.070595 0-157.506185 28.589081-165.921967 111.317292-8.282911 82.860082 40.244699 127.747247 108.777772 144.313069 68.500105 16.597791 131.722365-0.199805 186.796581-27.119516 55.107184-26.952679 109.078478-88.171895 109.078478-88.171894l285.556137 138.670579s17.934486-27.052581 30.825896-52.335891c12.925378-25.115473 23.678876-53.904359 23.678876-53.904359L604.602568 578.81575l0.000999 0.065936zM309.8624 716.716082c-100.796566 0-121.902954-49.462697-121.902954-84.997994 0-35.569264 21.007485-74.278462 106.640858-79.888984 85.700308-5.544585 201.458263 60.717705 201.458264 60.717706s-85.43257 104.169272-186.196168 104.169272z" fill="#FFFFFF" p-id="6337"></path></svg>